<svg id="Layer_1" data-name="Layer 1" xmlns="http://www.w3.org/2000/svg" viewBox="0 0 54 64"><defs><style>.cls-1{fill:#fff;}</style></defs><title>logo_white</title><path class="cls-1" d="M44.73,19.46,27.06,1.78,21.61,7.23V20.82h5.44A16.28,16.28,0,0,1,42.42,31.69a16.35,16.35,0,0,1,0,10.87,16.31,16.31,0,0,1-31.68-5.44v-19L9.39,19.46A24.1,24.1,0,0,0,2.05,37.13,24.13,24.13,0,0,0,9.39,54.8a24.08,24.08,0,0,0,17.66,7.33A24.11,24.11,0,0,0,44.73,54.8a24,24,0,0,0,7.32-17.67A24,24,0,0,0,44.73,19.46Z"/><circle class="cls-1" cx="27.05" cy="37.12" r="5.44"/></svg>